<svg width="16.022461" height="16.121094" viewBox="0 0 16.0225 16.1211" fill="none" xmlns="http://www.w3.org/2000/svg" xmlns:xlink="http://www.w3.org/1999/xlink">
	<desc>
			Created with Pixso.
	</desc>
	<defs/>
	<path d="M8.01 7.32C8.89 7.32 9.75 7.11 10.48 6.7C11.21 6.3 11.78 5.73 12.12 5.06C12.46 4.39 12.54 3.66 12.37 2.94C12.2 2.23 11.78 1.58 11.15 1.07C10.53 0.56 9.74 0.21 8.87 0.07C8.01 -0.08 7.12 0 6.3 0.27C5.49 0.55 4.79 1.02 4.31 1.62C3.82 2.23 3.56 2.93 3.56 3.66C3.56 4.63 4.03 5.56 4.86 6.25C5.7 6.94 6.83 7.32 8.01 7.32ZM8.01 1.46C8.53 1.46 9.05 1.59 9.49 1.83C9.93 2.07 10.27 2.42 10.47 2.82C10.68 3.22 10.73 3.66 10.63 4.09C10.52 4.51 10.27 4.91 9.89 5.21C9.52 5.52 9.05 5.73 8.53 5.82C8.01 5.9 7.47 5.86 6.98 5.69C6.5 5.52 6.08 5.24 5.79 4.88C5.49 4.52 5.34 4.09 5.34 3.66C5.34 3.08 5.62 2.52 6.12 2.1C6.62 1.69 7.3 1.46 8.01 1.46ZM0 15.38L0 12.45C0 11.48 0.47 10.55 1.3 9.86C2.13 9.18 3.27 8.79 4.45 8.79L11.57 8.79C12.75 8.79 13.88 9.18 14.71 9.86C15.55 10.55 16.02 11.48 16.02 12.45L16.02 15.38C16.02 15.58 15.92 15.76 15.76 15.9C15.59 16.04 15.36 16.12 15.13 16.12C14.89 16.12 14.66 16.04 14.5 15.9C14.33 15.76 14.24 15.58 14.24 15.38L14.24 12.45C14.24 11.87 13.96 11.31 13.46 10.9C12.95 10.49 12.27 10.25 11.57 10.25L4.45 10.25C3.74 10.25 3.06 10.49 2.56 10.9C2.06 11.31 1.78 11.87 1.78 12.45L1.78 15.38C1.78 15.58 1.68 15.76 1.51 15.9C1.35 16.04 1.12 16.12 0.89 16.12C0.65 16.12 0.42 16.04 0.26 15.9C0.09 15.76 0 15.58 0 15.38Z" fill="#FFFFFF" fill-opacity="1.000000" fill-rule="nonzero"/>
</svg>
